<?xml version="1.0" encoding="UTF-8"?>
<svg id="Layer_2" data-name="Layer 2" xmlns="http://www.w3.org/2000/svg" viewBox="0 0 303.16 294.22">
  <defs>
    <style>
      .cls-1 {
        fill: #885bce;
      }

      .cls-2 {
        stroke-linecap: round;
        stroke-linejoin: round;
        stroke-width: 2px;
      }

      .cls-2, .cls-3 {
        fill: none;
        stroke: #649696;
      }

      .cls-4 {
        fill: #7447ad;
      }

      .cls-5 {
        fill: #ffc0bd;
      }

      .cls-6 {
        fill: #f5b5af;
      }

      .cls-7 {
        fill: #d58f8d;
      }

      .cls-8 {
        fill: #ffcc4d;
      }

      .cls-3 {
        stroke-miterlimit: 10;
      }

      .cls-9 {
        fill: #7ba74f;
      }

      .cls-10 {
        fill: #cfb4ef;
      }
    </style>
  </defs>
  <g id="Layer_1-2" data-name="Layer 1">
    <path class="cls-10" d="m22.95,221.24s-47.12-55.54-6.31-76.05c4.01-2.02,8.34-3.28,12.77-4.05,11.02-1.91,43.64-11.67,17.54-58.92C15.93,26.05,57.8-9.06,96.48,8.69s53.25,30.3,111.67,10.45c.96-.32,1.9-.71,2.84-1.08,33.11-13.07,99.02,13.14,86.13,102.58-.41,2.86-1.07,5.68-1.99,8.42-3.59,10.66-14.44,36.64-36.46,42.01,0,0-21.32,3.78-22.58,31.88-.12,2.59.04,5.18.38,7.74.4,3.02,1.02,8.08,1.44,13.56,1.39,17.8-7.34,35.02-22.7,44.11-6.03,3.57-13.5,6.7-22.61,8.5-27.12,5.31-53.42,5.91-78.72.7-1.76-.36-3.54-.67-5.33-.84-9.26-.88-47.88-7.4-85.62-55.49Z"/>
    <path class="cls-7" d="m187.45,36.12c-20.1,7.8-38.19,19.7-54.94,33.12-.04.04-.11-.03-.07-.08,15.48-14.8,35.19-25.97,55.01-33.04h0Z"/>
    <path class="cls-7" d="m176.97,74.52c10.68-7.75,22.3-14.76,35.11-18.31.06-.02.09.07.03.09-6.03,2.73-12.07,5.35-18.01,8.25-5.87,2.83-11.82,6.7-17.13,9.97h0Z"/>
    <path class="cls-7" d="m189.6,97.28c9.2-6.97,19.39-13.24,30.7-16.01.05-.01.09.07.03.09-5.3,2.35-10.59,4.58-15.8,7.1-5.14,2.45-10.35,5.94-14.93,8.82h0Z"/>
    <path class="cls-7" d="m201.53,121.48c6.33-6.67,13.85-12.83,22.77-15.58.05-.02.09.06.04.09-4.02,2.3-8.03,4.48-11.94,6.95-3.85,2.38-7.62,5.81-10.87,8.54h0Z"/>
    <path class="cls-8" d="m141.29,30.18l-12.45-.84c-.25-.02-.48.09-.64.28l-7.75,9.78c-.38.48-1.16.32-1.31-.28l-3.05-12.1c-.06-.24-.23-.43-.46-.52l-11.69-4.35c-.58-.22-.66-1-.14-1.33l10.56-6.63c.21-.13.34-.36.35-.6l.52-12.46c.03-.62.75-.94,1.22-.54l9.57,8c.19.16.44.21.68.15l12.02-3.35c.6-.17,1.12.42.89,1l-4.65,11.58c-.09.23-.06.49.07.69l6.9,10.39c.34.52-.05,1.2-.67,1.16Z"/>
    <path class="cls-8" d="m101.6,80.64l-6.98-2.64c-.14-.05-.29-.03-.41.05l-6.13,4.25c-.3.21-.72-.02-.7-.39l.36-7.45c0-.15-.06-.29-.18-.38l-5.94-4.52c-.29-.22-.2-.69.15-.79l7.2-1.96c.14-.04.26-.14.3-.28l2.46-7.04c.12-.35.59-.41.79-.1l4.09,6.24c.08.12.22.2.36.2l7.46.17c.37,0,.57.44.34.73l-4.67,5.82c-.09.11-.12.27-.08.41l2.15,7.15c.11.35-.24.68-.59.55Z"/>
    <path class="cls-8" d="m289.88,148.46l-2.33-7.09c-.05-.14-.16-.25-.3-.29l-7.16-2.1c-.36-.1-.44-.57-.14-.79l6.02-4.41c.12-.09.19-.23.18-.37l-.22-7.46c-.01-.37.41-.59.71-.38l6.05,4.36c.12.09.27.11.41.06l7.03-2.51c.35-.12.69.2.58.56l-2.28,7.11c-.04.14-.02.29.07.41l4.56,5.9c.23.29.02.72-.35.72l-7.46.03c-.15,0-.28.07-.37.19l-4.21,6.16c-.21.31-.68.24-.79-.11Z"/>
    <g>
      <path class="cls-9" d="m48.93,174.71s-26.06,4.85-44.85-15.06c-.48-.51-.58-1.3-.21-1.9,1.63-2.63,8.05-8.07,31.21,4.7.71.39,1.39.81,2.06,1.26,3.13,2.11,11.86,8.25,11.78,11Z"/>
      <g>
        <path class="cls-3" d="m53.59,189.26c-1.49-4.49-3.43-10.92-5.17-18.77-2.35-10.62-4.02-22.43-4.6-42.7-.42-14.76-.28-34.66,1.91-58.6"/>
        <path class="cls-9" d="m47.35,166.85s24.51-10.09,29.45-37.02c.13-.69-.22-1.41-.86-1.71-2.8-1.32-11.14-2.4-23.64,20.92-.38.71-.73,1.44-1.04,2.18-1.48,3.47-5.47,13.37-3.91,15.64Z"/>
        <path class="cls-9" d="m44,121.7s24.51-10.09,29.45-37.02c.13-.69-.22-1.41-.86-1.71-2.8-1.32-11.14-2.4-23.64,20.92-.38.71-.73,1.44-1.04,2.18-1.48,3.47-5.47,13.37-3.91,15.64Z"/>
        <path class="cls-9" d="m44.06,97.79s-24.51-10.09-29.45-37.02c-.13-.69.22-1.41.86-1.71,2.8-1.32,11.14-2.4,23.64,20.92.38.71.73,1.44,1.04,2.18,1.48,3.47,5.47,13.37,3.91,15.64Z"/>
        <path class="cls-9" d="m44.59,147.19s-24.51-10.09-29.45-37.02c-.13-.69.22-1.41.86-1.71,2.8-1.32,11.14-2.4,23.64,20.92.38.71.73,1.44,1.04,2.18,1.48,3.47,5.47,13.37,3.91,15.64Z"/>
        <path class="cls-9" d="m45.44,69.22s23.72-11.83,26.72-39.04c.08-.7-.32-1.39-.98-1.65-2.89-1.12-11.29-1.59-22.08,22.56-.33.74-.62,1.49-.88,2.25-1.23,3.57-4.5,13.73-2.78,15.88Z"/>
      </g>
    </g>
    <g>
      <path class="cls-9" d="m124.65,269.65s13.09,23.04,40.43,24.56c.7.04,1.37-.39,1.59-1.06.96-2.94.98-11.36-23.72-20.83-.75-.29-1.52-.54-2.3-.76-3.63-1.03-13.96-3.75-16.01-1.91Z"/>
      <g>
        <path class="cls-3" d="m110.52,275.48c4.39-1.76,10.56-4.42,17.68-8.15,9.63-5.05,19.74-11.39,35.6-24.02,11.55-9.2,26.67-22.14,43.55-39.25"/>
        <path class="cls-9" d="m131.68,265.79s-8.09-25.24,9.31-46.38c.45-.54,1.22-.74,1.86-.45,2.82,1.29,9.02,6.97-.74,31.56-.3.75-.63,1.48-1,2.2-1.7,3.37-6.69,12.81-9.43,13.07Z"/>
        <path class="cls-9" d="m168.35,239.24s-8.09-25.24,9.31-46.38c.45-.54,1.22-.74,1.86-.45,2.82,1.29,9.02,6.97-.74,31.56-.3.75-.63,1.48-1,2.2-1.7,3.37-6.69,12.81-9.43,13.07Z"/>
        <path class="cls-9" d="m186.58,223.77s23.52,12.22,47.29-1.37c.61-.35.94-1.08.76-1.76-.79-2.99-5.35-10.06-31.23-4.58-.79.17-1.57.37-2.34.61-3.61,1.11-13.75,4.44-14.47,7.1Z"/>
        <path class="cls-9" d="m148.48,255.22s23.52,12.22,47.29-1.37c.61-.35.94-1.08.76-1.76-.79-2.99-5.35-10.06-31.23-4.58-.79.17-1.57.37-2.34.61-3.61,1.11-13.75,4.44-14.47,7.1Z"/>
        <path class="cls-9" d="m207.53,204.29s-6.26-25.75,12.61-45.6c.49-.51,1.27-.65,1.89-.32,2.72,1.48,8.5,7.6-3,31.42-.35.73-.74,1.44-1.15,2.13-1.94,3.24-7.59,12.29-10.35,12.36Z"/>
      </g>
    </g>
    <path class="cls-2" d="m192.86,168.9c4.12,10.26,14.35,31.09,35.07,38.27,1.74.6,3.6,1.12,5.57,1.53,1.72.42,3.97.65,5.47-.57,2.2-1.79,1.59-5.58,1.12-12.61-.26-3.9.14-7.81,0-11.71-.46-12.63,2.36-28.75,3.06-32.78,3.04-17.4,8.23-29.84,17.62-52.34,8.05-19.31,8.82-17.88,10.21-23.74,3.01-12.7,2.38-31.92-15.32-59.49-1.83-1.77-15.31-14.51-28.34-10.69-5.31,1.56-9.31,5.51-14.3,10.44-5.43,5.36-9.02,10.61-11.23,14.3"/>
    <g>
      <circle class="cls-1" cx="246.2" cy="12.02" r="11.9"/>
      <ellipse class="cls-4" cx="247.61" cy="11.9" rx="10.48" ry="11.44"/>
    </g>
    <g>
      <circle class="cls-1" cx="220.72" cy="11.9" r="11.9"/>
      <ellipse class="cls-4" cx="222.13" cy="11.78" rx="10.48" ry="11.44"/>
    </g>
    <g>
      <circle class="cls-1" cx="203.48" cy="28.75" r="11.9"/>
      <ellipse class="cls-4" cx="204.9" cy="28.63" rx="10.48" ry="11.44"/>
    </g>
    <g>
      <circle class="cls-1" cx="264.2" cy="33.08" r="11.9"/>
      <ellipse class="cls-4" cx="265.61" cy="32.96" rx="10.48" ry="11.44"/>
    </g>
    <g>
      <circle class="cls-1" cx="269.99" cy="60.57" r="11.9"/>
      <ellipse class="cls-4" cx="271.4" cy="60.45" rx="10.48" ry="11.44"/>
    </g>
    <g>
      <circle class="cls-1" cx="267.02" cy="89.31" r="11.9"/>
      <ellipse class="cls-4" cx="268.44" cy="89.19" rx="10.48" ry="11.44"/>
    </g>
    <g>
      <circle class="cls-1" cx="255.13" cy="115.63" r="11.9"/>
      <ellipse class="cls-4" cx="256.54" cy="115.51" rx="10.48" ry="11.44"/>
    </g>
    <g>
      <circle class="cls-1" cx="247.61" cy="141.96" r="11.9"/>
      <ellipse class="cls-4" cx="249.02" cy="141.84" rx="10.48" ry="11.44"/>
    </g>
    <g>
      <circle class="cls-1" cx="243.23" cy="167.81" r="11.9"/>
      <ellipse class="cls-4" cx="244.64" cy="167.69" rx="10.48" ry="11.44"/>
    </g>
    <g>
      <circle class="cls-1" cx="241.8" cy="197.14" r="11.9"/>
      <ellipse class="cls-4" cx="243.21" cy="197.02" rx="10.48" ry="11.44"/>
    </g>
    <g>
      <circle class="cls-1" cx="218.43" cy="199.44" r="11.9"/>
      <ellipse class="cls-4" cx="219.84" cy="199.32" rx="10.48" ry="11.44"/>
    </g>
    <g>
      <circle class="cls-1" cx="201.57" cy="177.37" r="11.9"/>
      <ellipse class="cls-4" cx="202.98" cy="177.25" rx="10.48" ry="11.44"/>
    </g>
    <path class="cls-8" d="m232.95,245.5s3.57-9.7,0-16.34-5.23-19.79-1.02-22.21c2.95-1.7,6.64,3.85,8.6,7.33.99,1.76,2.19,3.38,3.58,4.84,2.5,2.62,6.49,7.2,8.71,11.83,1.9,3.96.65,8.68-3.01,11.09-7.93,5.22-16.86,3.45-16.86,3.45Z"/>
    <path class="cls-5" d="m25.11,218.6c13.48-14.01,67.26-71.36,75.07-102.81h0s21.96-58.72,37.28-68.94c0,0,40.56-33.89,58.18-36.52,1.64-.25,3.09,1.07,3.05,2.74-.1,4.15-1.39,12.26-8.78,20.69-.39.44.09,1.1.62.86,6.37-2.91,22.31-9.18,23.91.3,1.97,11.65-1.31,19.16-2.34,21.33-.03.07,0,.14.07.18,1.5.8,16.31,9.21,8.3,25.31,0,0,0,0,0,0,0,0,12.54,7.06,4.12,24.35,0,0,0,0,0,0,0,0,10,2.62,5.22,17.15-.98,2.98-2.41,5.79-4.13,8.41-6.59,10.03-30.08,43.97-54.64,57.93-25.36,14.41-52.86,70.36-59.34,84.12-.87,1.84-2.87,2.87-4.87,2.47-11.87-2.35-51.92-12.82-82.03-50.86-1.58-2-1.44-4.87.33-6.71Z"/>
    <path class="cls-6" d="m29.26,223.4c13.35-13.86,67.33-71.38,75.15-102.89h0s21.96-58.72,37.28-68.94c0,0,40.82-34.11,58.35-36.54,1.53-.21,2.9.98,2.88,2.52-.06,4.15-1.3,12.67-9.25,21.45-.29.32.06.81.46.63,5.87-2.75,22.89-9.8,24.55,0,2.01,11.87-3.32,17.89-1.49,20.53,0,0,15.94,9.35,7.52,26.29,0,0,0,0,0,0,0,0,12.54,7.06,4.12,24.35,0,0,0,0,0,0,0,0,10.01,2.62,5.21,17.17-.98,2.97-2.4,5.76-4.12,8.37-6.58,10.01-30.08,43.98-54.65,57.95-25.42,14.45-53,70.64-59.39,84.23-.84,1.79-2.78,2.77-4.71,2.39-11.74-2.31-52.01-12.74-82.22-50.98-1.54-1.95-1.39-4.74.33-6.53Z"/>
  </g>
</svg>