<?xml version="1.0" encoding="UTF-8"?>
<svg id="Layer_2" data-name="Layer 2" xmlns="http://www.w3.org/2000/svg" xmlns:xlink="http://www.w3.org/1999/xlink" viewBox="0 0 337.74 339.33">
  <defs>
    <style>
      .cls-1 {
        fill: #f9c67d;
      }

      .cls-2 {
        fill: #f2ba5b;
      }

      .cls-3 {
        fill: #bf8840;
      }

      .cls-4 {
        stroke-width: 8px;
      }

      .cls-4, .cls-5, .cls-6 {
        fill: none;
      }

      .cls-4, .cls-5, .cls-6, .cls-7, .cls-8, .cls-9 {
        stroke: #c3bc86;
        stroke-linecap: round;
        stroke-miterlimit: 10;
      }

      .cls-5 {
        stroke-width: 10px;
      }

      .cls-10 {
        fill: #999168;
      }

      .cls-6, .cls-8 {
        stroke-width: 7px;
      }

      .cls-11 {
        clip-path: url(#clippath-1);
      }

      .cls-12 {
        fill: #bcb386;
      }

      .cls-13 {
        fill: #f6f4d1;
      }

      .cls-7 {
        stroke-width: 9px;
      }

      .cls-7, .cls-8, .cls-9 {
        fill: #c3bc86;
      }

      .cls-14 {
        fill: #989068;
      }

      .cls-15 {
        fill: #dba14d;
      }

      .cls-16 {
        clip-path: url(#clippath-3);
      }

      .cls-9 {
        stroke-width: 6px;
      }

      .cls-17 {
        clip-path: url(#clippath-5);
      }
    </style>
    <clipPath id="clippath-1">
      <path class="cls-2" d="m31.37,278.14c-3.69-4.12-2.68-10.61,2.04-13.51,29-17.86,123.87-76.28,137.9-84.7,16.6-9.96,98.81-58.72,98.81-58.72l10.39,15c3.14,4.53,1.97,10.75-2.59,13.84-36.7,24.81-183.14,123.81-193.41,130.73s-32.24,20.67-53.13-2.64Z"/>
    </clipPath>
    <clipPath id="clippath-3">
      <path class="cls-15" d="m40.07,122.22l235.15,141.19s13.02,7.91,4.85,15.83-25.28,23.23-53.36,0S31.39,147.76,31.39,147.76c0,0-8.43-5.87,8.68-25.53Z"/>
    </clipPath>
    <clipPath id="clippath-5">
      <path class="cls-10" d="m170.75,219.75l9.25-1.69c3.08-.56,6.06,1.37,6.79,4.4.67,2.74,1.46,6.23,2.14,9.74,1.65,8.64,2.12,14.88-6.64,16.66-12.89,2.62-16.37,2.32-17.74-6.26-.72-4.51-1.31-8.55-1.76-11.86-.71-5.21,2.8-10.05,7.97-10.99Z"/>
    </clipPath>
  </defs>
  <g id="Layer_1-2" data-name="Layer 1">
    <path class="cls-13" d="m204.24,68.1c19.85-23.28,44.43-77.62,96.51-40.85,52.09,36.77,48.51,152.17-6.64,209.87s-115.4,73.02-153.19,48-1.02-34.21-75.06-40.34S-9.2,141.63,11.73,91.07s86.3-56.17,115.4-27.57,62.3,21.96,77.11,4.6Z"/>
    <g>
      <path class="cls-2" d="m31.37,278.14c-3.69-4.12-2.68-10.61,2.04-13.51,29-17.86,123.87-76.28,137.9-84.7,16.6-9.96,98.81-58.72,98.81-58.72l10.39,15c3.14,4.53,1.97,10.75-2.59,13.84-36.7,24.81-183.14,123.81-193.41,130.73s-32.24,20.67-53.13-2.64Z"/>
      <g class="cls-11">
        <path class="cls-3" d="m92.92,184.52l-14.3,39.06s149.87-52.34,171.32-46.47,40.6-14.81,40.6-17.11,1.53-46.21,1.53-46.21l-40.09-15.06-159.06,85.79Z"/>
        <ellipse class="cls-1" cx="100.52" cy="232.81" rx="4.69" ry="5.07"/>
        <path class="cls-1" d="m65.57,250.14c-12.26,7.28-40.02,20.39-29.49,30.93s29.78,10.91,22.21.96-.48-14.17,7.66-20.97,23.36-18.38,20.39-20.59-20.78,9.67-20.78,9.67Z"/>
        <ellipse class="cls-3" cx="153.47" cy="211.41" rx="8.23" ry="7.71"/>
      </g>
    </g>
    <g>
      <path class="cls-15" d="m40.07,122.22l235.15,141.19s13.02,7.91,4.85,15.83-25.28,23.23-53.36,0S31.39,147.76,31.39,147.76c0,0-8.43-5.87,8.68-25.53Z"/>
      <g class="cls-16">
        <path class="cls-2" d="m37.97,124.73s83.49,46.36,118.07,109.07c4.65,2.22,83.44,55.66,83.44,55.66,0,0,35.77,13.02,43.29-19.66L40.07,122.22l-2.1,2.5h0"/>
      </g>
    </g>
    <path class="cls-12" d="m47.42,105.61c2.23-3.35,4.84-9.1,5.84-18.37.32-2.96,3.22-5.01,6.03-4.14.41.13.75.29,1,.49,1.12.88,78.07,46.63,90.74,67.94.07.12.14.24.2.37l5.4,10.84c3.18,4.68-1.27,13.68-5.7,10.84l-101.8-60.95c-2.47-1.39-3.29-4.64-1.71-7.02Z"/>
    <polygon class="cls-10" points="39.41 106.63 152.45 173.84 267.23 105.85 274.97 118.94 154.03 190.65 32.06 119.53 39.41 106.63"/>
    <path class="cls-12" d="m263.82,105.39c-2.36-3.31-5.13-9.01-6.19-18.19-.34-2.93-3.41-4.96-6.39-4.1-.43.13-.79.29-1.06.49-1.19.87-82.67,46.17-96.1,67.27-.08.12-.14.24-.21.36l-5.72,10.73c-3.36,4.64,1.34,13.54,6.04,10.73l107.81-60.35c2.62-1.38,3.49-4.6,1.82-6.95Z"/>
    <path class="cls-14" d="m162.23,156.82c14.58-14.17,30.35-27.14,47.02-38.79,10.83-8.21,23.06-14.55,36-18.7,2.14-.6,4.48-1.48,6.55-1.78-15.16,4.5-29.44,11.64-42.16,21.02-16.79,11.4-32.64,24.55-47.41,38.24h0Z"/>
    <path class="cls-14" d="m166.26,160.49c25.68-20.09,53.33-37.94,83.03-51.51,0,0,.03.07.03.07-29.03,14.7-57.29,31.8-83.06,51.45h0Z"/>
    <path class="cls-14" d="m159.82,164.91c-14.45-13.78-29.98-26.41-46.44-37.69-12.48-9.22-26.53-16.2-41.44-20.54,2.03.28,4.34,1.14,6.44,1.71,12.73,4.01,24.77,10.21,35.39,18.29,16.28,11.47,32.08,24.25,46.05,38.23h0Z"/>
    <path class="cls-14" d="m159.62,171.3c-25.79-19.93-54-36.72-83.01-51.51,0,0,.03-.07.03-.07,29.61,13.6,57.6,31.42,82.98,51.57h0Z"/>
    <path class="cls-13" d="m149.71,150.62c-.73-1.41.12-3.1,1.81-3.49.71-.16,1.58-.24,2.64-.16,0,0,5.96-1.94,13.11,22.17,6.94,23.39,8.54,47.43,8.63,48.85,0,.05,0,.09,0,.14v5.61c0,1.4-1.28,2.54-2.85,2.54h0c-1.43,0-2.65-.95-2.83-2.21l-4.63-31.67s-.93-7.89-1.79-13.53c-.76-4.97-10.82-21.88-14.1-28.24Z"/>
    <g>
      <path class="cls-10" d="m170.75,219.75l9.25-1.69c3.08-.56,6.06,1.37,6.79,4.4.67,2.74,1.46,6.23,2.14,9.74,1.65,8.64,2.12,14.88-6.64,16.66-12.89,2.62-16.37,2.32-17.74-6.26-.72-4.51-1.31-8.55-1.76-11.86-.71-5.21,2.8-10.05,7.97-10.99Z"/>
      <g class="cls-17">
        <path class="cls-13" d="m171.5,226.87s-1.12,16.37,13.37,13.05c-.48,1.28-2.62,2.44-5.2,3-6.3,1.37-12.43-3.58-11.85-10,.21-2.32,1.26-4.56,3.68-6.05Z"/>
        <polygon class="cls-13" points="175.63 228.9 178.3 230.42 181.07 229.08 180.44 232.09 182.57 234.31 179.52 234.65 178.07 237.36 176.8 234.56 173.78 234.02 176.05 231.95 175.63 228.9"/>
      </g>
    </g>
    <line class="cls-7" x1="50.8" y1="32.24" x2="86.29" y2="32.34"/>
    <line class="cls-5" x1="68.54" y1="14.54" x2="68.54" y2="50.03"/>
    <line class="cls-9" x1="241.27" y1="15.4" x2="263.86" y2="14.92"/>
    <line class="cls-6" x1="252.05" y1="3.5" x2="252.49" y2="25.91"/>
    <line class="cls-7" x1="181.01" y1="316.53" x2="216.5" y2="316.64"/>
    <line class="cls-5" x1="198.75" y1="298.84" x2="198.75" y2="334.33"/>
    <line class="cls-8" x1="272.16" y1="202.62" x2="292.01" y2="202.68"/>
    <line class="cls-4" x1="282.08" y1="192.72" x2="282.08" y2="212.57"/>
    <line class="cls-7" x1="11.89" y1="201.87" x2="31.74" y2="201.93"/>
    <line class="cls-5" x1="21.82" y1="191.98" x2="21.82" y2="211.83"/>
    <line class="cls-7" x1="166.29" y1="83.32" x2="186.14" y2="83.38"/>
    <line class="cls-4" x1="176.21" y1="73.43" x2="176.21" y2="93.28"/>
  </g>
</svg>